# Exported from Wings 3D 2.2.4
mtllib LPN_Tree_3.mtl
o Tree_3
#10 vertices, 16 faces
v 0.82133899 0.69404444 1.2458449e-2
v -0.67866101 0.69404444 0.87848385
v -0.67866101 0.69404444 -0.85356696
v -0.17866101 3.69404444 1.2458449e-2
v 2.3338986e-2 0.69404444 1.2458449e-2
v -0.27966101 0.69404444 0.18739558
v -0.27966101 0.69404444 -0.16247868
v 2.3338986e-2 0.0000000e+0 1.2458449e-2
v -0.27966101 0.0000000e+0 0.18739558
v -0.27966101 0.0000000e+0 -0.16247868
vt 0.51978194 0.90924391
vt 0.58016352 0.90924391
vt 0.60309036 0.89600709
vt 0.60309036 0.92248072
vt 0.63328115 0.84371511
vt 0.63328115 0.97477270
vt 0.72031039 0.84569352
vt 0.72031039 0.84569352
vt 0.72031039 0.97966204
vt 0.72031039 0.97966204
vt 0.72483436 0.91267778
vt 0.78332120 0.87891039
vt 0.78332120 0.94644517
vt 0.78784517 0.84569352
vt 0.78784517 0.84569352
vt 0.78784517 0.97966204
vt 0.78784517 0.97966204
vt 0.86498531 0.84869190
vt 0.87807497 0.85475145
vt 0.90343333 0.98371691
vt 0.90359230 0.99280530
vt 0.90655083 0.86201744
vt 0.94188135 0.84869190
vt 0.95462695 0.86201744
vt 0.95758548 0.99280530
vt 0.98310281 0.85475145
vn 0.49319696 0.16439899 0.85424220
vn 0.49319696 0.16439899 -0.85424220
vn 0.0000000e+0 -1.00000000 0.0000000e+0
vn 0.0000000e+0 -1.00000000 0.0000000e+0
vn 0.0000000e+0 -1.00000000 0.0000000e+0
vn 0.49319696 0.16439899 0.85424220
vn -0.98639392 0.16439899 2.2018976e-16
vn 0.0000000e+0 -1.00000000 -3.5956707e-17
vn 0.0000000e+0 -1.00000000 -3.5956707e-17
vn -0.98639392 0.16439899 2.2018976e-16
vn 0.49319696 0.16439899 -0.85424220
vn 0.0000000e+0 -1.00000000 -1.7978353e-17
vn 0.0000000e+0 -1.00000000 -1.7978353e-17
vn 0.0000000e+0 -1.00000000 -1.7978353e-17
vn 0.0000000e+0 -1.00000000 -1.7978353e-17
vn 0.49319696 0.16439899 0.85424220
vn -0.98639392 0.16439899 2.2018976e-16
vn 0.49319696 0.16439899 -0.85424220
vn 0.0000000e+0 -1.00000000 0.0000000e+0
vn 0.0000000e+0 -1.00000000 0.0000000e+0
vn 0.50000000 0.0000000e+0 0.86602540
vn 0.50000000 0.0000000e+0 -0.86602540
vn 0.50000000 0.0000000e+0 -0.86602540
vn 0.50000000 0.0000000e+0 0.86602540
vn 0.0000000e+0 -1.00000000 0.0000000e+0
vn 0.0000000e+0 -1.00000000 -1.7978353e-17
vn 0.0000000e+0 -1.00000000 -1.7978353e-17
vn -1.00000000 0.0000000e+0 0.0000000e+0
vn 0.0000000e+0 -1.00000000 -1.7978353e-17
vn 0.0000000e+0 -1.00000000 -1.7978353e-17
vn -1.00000000 0.0000000e+0 0.0000000e+0
vn 0.50000000 0.0000000e+0 0.86602540
vn 0.0000000e+0 -1.00000000 0.0000000e+0
vn 0.0000000e+0 -1.00000000 0.0000000e+0
vn -1.00000000 0.0000000e+0 0.0000000e+0
vn 0.50000000 0.0000000e+0 -0.86602540
vn 0.0000000e+0 -1.00000000 0.0000000e+0
vn 0.50000000 0.0000000e+0 0.86602540
vn 0.50000000 0.0000000e+0 -0.86602540
vn 0.0000000e+0 -1.00000000 0.0000000e+0
vn 0.50000000 0.0000000e+0 0.86602540
vn -1.00000000 0.0000000e+0 0.0000000e+0
vn 0.50000000 0.0000000e+0 0.86602540
vn 0.0000000e+0 -1.00000000 0.0000000e+0
vn -1.00000000 0.0000000e+0 0.0000000e+0
vn 0.50000000 0.0000000e+0 -0.86602540
vn -1.00000000 0.0000000e+0 0.0000000e+0
vn 0.50000000 0.0000000e+0 -0.86602540
g Tree_3
usemtl LPN_Mat
s 1
f 2/23/7 4/20/17 3/18/10
f 9/12/40 10/13/44 8/11/37
s 2
f 3/26/11 4/25/18 1/22/2
f 6/10/32 9/7/43 5/17/24
f 8/14/38 5/17/21 9/7/41
s 3
f 1/24/1 4/21/16 2/19/6
f 7/9/35 10/8/47 6/16/31
f 9/15/42 6/16/28 10/8/45
s 4
f 5/9/23 10/15/48 7/16/36
f 8/8/39 10/15/46 5/9/22
s 5
f 1/1/5 5/2/25 3/6/15
f 2/5/8 6/3/29 1/1/4
f 3/6/14 6/3/30 2/5/9
f 5/2/19 1/1/3 6/3/26
f 6/3/27 3/6/12 7/4/33
f 7/4/34 3/6/13 5/2/20
