# Exported from Wings 3D 2.2.4
mtllib LPN_Rock_4.mtl
o Rock_4
#11 vertices, 18 faces
v 1.8679877e-2 0.71004207 0.17551261
v 0.16095583 0.74140074 -0.16836214
v 0.18552911 0.50017620 0.27819914
v -0.29946648 0.44082312 0.26397217
v 0.44214445 0.29857798 7.6451150e-3
v -0.27693493 0.27509940 -0.23917880
v 0.30417537 0.0000000e+0 -3.8301215e-2
v 0.13241073 9.0473173e-2 0.24673016
v -8.2303824e-2 6.9408233e-2 0.11714200
v -0.10160198 0.10151413 -0.18480633
v 0.12514505 7.1355822e-2 -0.25328224
vt 0.17963948 0.43152136
vt 0.17978687 0.40072858
vt 0.19184686 0.42617016
vt 0.19366889 0.38719940
vt 0.20424225 0.37733446
vt 0.20501086 0.39031908
vt 0.20816376 0.42449845
vt 0.21033255 0.48891727
vt 0.22372611 0.35673204
vt 0.22788223 0.47669587
vt 0.22899784 0.37069552
vt 0.22920127 0.46810448
vt 0.24325367 0.48502755
vt 0.24338644 0.48206796
vt 0.25170205 0.45245591
vt 0.25259404 0.35377245
vt 0.26065426 0.38837041
vt 0.26213412 0.36210413
vt 0.26314547 0.36325363
vt 0.26648563 0.34988273
vt 0.26791574 0.39593022
vt 0.27324145 0.45478289
vt 0.27359752 0.44329923
vt 0.27666117 0.38901167
vt 0.29139063 0.36036131
vt 0.29928068 0.46322857
vt 0.30243358 0.38634409
vt 0.30320219 0.40699004
vt 0.31377555 0.45160060
vt 0.31559759 0.46549281
vt 0.32765757 0.39356032
vt 0.32780496 0.39911634
vn -7.4626438e-2 0.38978378 0.91787771
vn 0.72026707 0.59746639 0.35249008
vn -0.66492764 0.71685509 -0.20973796
vn 0.72178577 0.66599650 0.18834536
vn 0.72026707 0.59746639 0.35249008
vn -0.68514003 0.68217917 -0.25537174
vn 0.60439565 6.8296291e-2 -0.79375154
vn -0.66492764 0.71685509 -0.20973796
vn 2.8145406e-2 0.12420175 -0.99185773
vn -7.4626438e-2 0.38978378 0.91787771
vn -2.0196188e-2 -7.3964692e-2 0.99705634
vn 0.72178577 0.66599650 0.18834536
vn 0.66299619 -0.14240924 0.73495282
vn -7.4626438e-2 0.38978378 0.91787771
vn -0.68514003 0.68217917 -0.25537174
vn -0.82936753 -0.54063672 0.14093064
vn -2.0196188e-2 -7.3964692e-2 0.99705634
vn -0.66492764 0.71685509 -0.20973796
vn -0.39966269 -0.52949032 0.74827116
vn 0.71413412 -0.41656308 0.56257236
vn 0.71045256 -0.22571750 -0.66656490
vn 0.72026707 0.59746639 0.35249008
vn 0.60439565 6.8296291e-2 -0.79375154
vn 0.72178577 0.66599650 0.18834536
vn 0.66299619 -0.14240924 0.73495282
vn -0.69827269 -0.71514231 -3.1412342e-2
vn -0.30740876 -0.55305703 -0.77435636
vn -0.68514003 0.68217917 -0.25537174
vn -0.82936753 -0.54063672 0.14093064
vn 2.8145406e-2 0.12420175 -0.99185773
vn 0.71413412 -0.41656308 0.56257236
vn 0.71045256 -0.22571750 -0.66656490
vn -6.5921783e-2 -0.96183386 0.26557473
vn -0.22634469 -0.96508438 -0.13183408
vn 0.71413412 -0.41656308 0.56257236
vn -2.0196188e-2 -7.3964692e-2 0.99705634
vn -6.5921783e-2 -0.96183386 0.26557473
vn 0.66299619 -0.14240924 0.73495282
vn -0.39966269 -0.52949032 0.74827116
vn -0.19291812 -0.97466732 -0.11316456
vn -0.69827269 -0.71514231 -3.1412342e-2
vn -0.82936753 -0.54063672 0.14093064
vn -6.5921783e-2 -0.96183386 0.26557473
vn -0.39966269 -0.52949032 0.74827116
vn -0.19291812 -0.97466732 -0.11316456
vn -0.15919103 -0.98273200 -9.4318765e-2
vn -0.69827269 -0.71514231 -3.1412342e-2
vn -0.30740876 -0.55305703 -0.77435636
vn -0.19291812 -0.97466732 -0.11316456
vn -0.30740876 -0.55305703 -0.77435636
vn 0.71045256 -0.22571750 -0.66656490
vn 0.60439565 6.8296291e-2 -0.79375154
vn 2.8145406e-2 0.12420175 -0.99185773
vn -0.19291812 -0.97466732 -0.11316456
g Rock_4
usemtl LPN_Mat
s 1
f 1/10/2 5/18/22 2/26/5
f 4/28/15 2/8/6 6/5/28
f 4/1/17 8/19/36 3/23/11
f 6/31/27 11/16/50 10/25/48
f 7/17/32 11/27/51 5/15/21
f 8/11/37 9/21/43 7/3/33
s 2
f 1/14/1 4/1/14 3/23/10
f 5/15/20 8/6/35 7/17/31
f 7/3/34 9/21/45 11/12/54
f 8/19/39 4/1/19 9/9/44
f 10/22/46 11/12/49 9/21/40
f 11/16/52 2/13/7 5/2/23
s 3
f 2/29/8 4/4/18 1/24/3
f 3/23/13 8/19/38 5/32/25
f 6/31/30 2/13/9 11/16/53
f 10/22/47 9/21/41 6/30/26
s 4
f 3/7/12 5/18/24 1/10/4
f 6/5/29 9/20/42 4/28/16
