# Exported from Wings 3D 2.2.4
mtllib LPN_Rock_2.mtl
o Rock_2
#16 vertices, 28 faces
v -0.82549328 9.4940518e-2 -0.37455313
v -1.01821022 0.0000000e+0 0.23267273
v -0.30115102 0.15188088 -1.09876692
v -0.19144664 0.12938658 0.97889262
v -0.24036700 0.71706648 -0.33374272
v -0.13045145 0.82227405 0.37043418
v -0.40036231 0.94705271 1.12368382
v 0.27204374 0.19005564 -0.96614866
v 0.50570811 0.19185898 0.79507865
v 0.34791322 0.70401824 -0.70142188
v 0.35518467 0.90988737 0.11488955
v 0.34550366 0.98051310 0.82195924
v 1.16088819 0.15141279 -0.97791390
v 0.99859975 0.20177168 -0.20736097
v 1.00781996 0.23041128 0.30363852
v 1.02697011 0.77350746 -0.42995510
vt 0.17827478 0.38100933
vt 0.17854872 0.36120889
vt 0.18505687 0.37145812
vt 0.19000977 0.45359096
vt 0.19154545 0.41095899
vt 0.20531154 0.41871772
vt 0.21789457 0.43549832
vt 0.21819059 0.45155532
vt 0.22302445 0.47713123
vt 0.23315776 0.37612866
vt 0.23873936 0.36841851
vt 0.24945298 0.43372123
vt 0.25239567 0.36410863
vt 0.25612484 0.38427195
vt 0.25954670 0.44563128
vt 0.26250921 0.42904832
vt 0.26582974 0.40627740
vt 0.27299936 0.43557777
vt 0.27807531 0.37108037
vt 0.28409035 0.37917608
vt 0.29091951 0.46593182
vt 0.29272729 0.38050642
vt 0.29332882 0.41981490
vt 0.29812234 0.47096789
vt 0.29816719 0.35639063
vt 0.30103851 0.45516923
vt 0.30417546 0.47054138
vt 0.30631412 0.37428016
vt 0.31561744 0.41345172
vt 0.32190821 0.36313143
vt 0.32293971 0.37816917
vt 0.32730036 0.45058943
vt 0.36103961 0.79865855
vt 0.36935365 0.72573853
vt 0.37001510 0.75481559
vt 0.39800617 0.69774406
vt 0.41133971 0.79800654
vt 0.43784325 0.68725117
vt 0.44404752 0.80553869
vt 0.47403167 0.76428441
vt 0.48535213 0.72967257
vn -0.64759766 0.63655714 -0.41882249
vn 3.7426214e-2 -0.99598858 -8.1277478e-2
vn 3.7426214e-2 -0.99598858 -8.1277478e-2
vn 3.7426214e-2 -0.99598858 -8.1277478e-2
vn -0.71908224 0.68426882 -0.12123082
vn 3.7426214e-2 -0.99598858 -8.1277478e-2
vn -0.61092374 0.71612743 -0.33754065
vn -0.70072065 0.71068659 -6.2571157e-2
vn -0.61659715 -0.28733553 0.73297084
vn 9.9495722e-2 -0.99503144 3.6107345e-3
vn 9.9495722e-2 -0.99503144 3.6107345e-3
vn 9.9495722e-2 -0.99503144 3.6107345e-3
vn -0.70072065 0.71068659 -6.2571157e-2
vn 9.9495722e-2 -0.99503144 3.6107345e-3
vn -0.64759766 0.63655714 -0.41882249
vn 7.2410022e-2 -0.99703692 -2.5964720e-2
vn 8.4832981e-2 0.79817770 -0.59641908
vn -0.61659715 -0.28733553 0.73297084
vn 0.10399355 -0.99294625 5.6948142e-2
vn 0.26220891 -0.10291333 0.95950786
vn -0.18111794 0.96768008 -0.17547521
vn -0.20078867 0.66641115 -0.71803906
vn -0.70072065 0.71068659 -6.2571157e-2
vn -0.64759766 0.63655714 -0.41882249
vn -0.18111794 0.96768008 -0.17547521
vn -0.20078867 0.66641115 -0.71803906
vn -0.70072065 0.71068659 -6.2571157e-2
vn -0.61092374 0.71612743 -0.33754065
vn -0.67922262 0.73392332 -3.6314200e-3
vn -0.23142069 0.96680434 -0.10832278
vn -0.30237552 0.91697278 -0.26024981
vn -0.19561395 0.96364304 -0.18200902
vn 0.31897057 -2.9501878e-2 0.94730534
vn -0.61092374 0.71612743 -0.33754065
vn -0.61659715 -0.28733553 0.73297084
vn -0.19561395 0.96364304 -0.18200902
vn 0.31897057 -2.9501878e-2 0.94730534
vn -0.20078867 0.66641115 -0.71803906
vn 0.16517623 0.54294936 -0.82336067
vn 1.3640697e-2 -0.99088668 -0.13400565
vn 1.3640697e-2 -0.99088668 -0.13400565
vn -0.20078867 0.66641115 -0.71803906
vn 0.16517623 0.54294936 -0.82336067
vn 0.31897057 -2.9501878e-2 0.94730534
vn 0.69020323 0.11585987 0.71428005
vn 0.10783914 -0.99307689 4.6572553e-2
vn 0.10783914 -0.99307689 4.6572553e-2
vn 0.31897057 -2.9501878e-2 0.94730534
vn -0.12954002 0.96174279 -0.24139220
vn -1.4714737e-3 0.96964185 -0.24452509
vn -0.46357390 0.45885127 -0.75799390
vn 0.30457449 0.40022636 -0.86432242
vn -0.18111794 0.96768008 -0.17547521
vn -0.19561395 0.96364304 -0.18200902
vn -1.4714737e-3 0.96964185 -0.24452509
vn 0.54672683 0.66607342 0.50738149
vn 0.72801918 0.68307664 -5.8261339e-2
vn -0.18111794 0.96768008 -0.17547521
vn -0.19561395 0.96364304 -0.18200902
vn -8.4999230e-2 0.99133167 -0.10018305
vn 0.37293803 4.4168012e-2 0.92680441
vn 0.72801918 0.68307664 -5.8261339e-2
vn 0.69020323 0.11585987 0.71428005
vn 0.97847088 3.0893479e-2 0.20405963
vn 3.0563721e-3 -0.99652743 -8.3209008e-2
vn 3.0563721e-3 -0.99652743 -8.3209008e-2
vn 1.8926534e-2 0.66315105 -0.74824626
vn 0.97847088 3.0893479e-2 0.20405963
vn 0.99835590 -5.5345531e-2 -1.4911913e-2
vn 7.7825249e-2 -0.99696656 -9.5331472e-4
vn 7.7825249e-2 -0.99696656 -9.5331472e-4
vn 7.7825249e-2 -0.99696656 -9.5331472e-4
vn 0.99835590 -5.5345531e-2 -1.4911913e-2
vn 0.54672683 0.66607342 0.50738149
vn 0.72801918 0.68307664 -5.8261339e-2
vn 0.69020323 0.11585987 0.71428005
vn 0.11133017 -0.99276839 4.4905556e-2
vn 0.11133017 -0.99276839 4.4905556e-2
vn -1.4714737e-3 0.96964185 -0.24452509
vn 0.97847088 3.0893479e-2 0.20405963
vn 0.99835590 -5.5345531e-2 -1.4911913e-2
vn 0.54672683 0.66607342 0.50738149
vn 0.16517623 0.54294936 -0.82336067
vn 0.16517623 0.54294936 -0.82336067
g Rock_2
usemtl LPN_Mat
s 1
f 3/5/15 1/25/1 5/27/24
f 6/17/28 2/6/7 7/13/34
f 9/20/45 15/31/76 12/18/63
f 11/23/55 16/32/79 10/21/50
f 14/11/69 16/16/81 15/3/73
s 2
f 2/6/13 5/15/27 1/8/5
f 3/28/17 5/26/26 8/14/42
f 4/10/20 9/20/48 7/7/37
f 5/15/23 2/6/8 6/17/29
f 7/7/33 9/20/44 12/18/61
f 10/12/51 8/14/38 5/26/22
f 12/9/62 15/19/75 11/24/57
f 13/30/64 16/16/80 14/11/68
s 3
f 7/7/35 2/2/9 4/10/18
f 7/13/36 11/23/59 6/17/31
f 8/14/43 16/4/84 13/1/67
f 11/23/56 15/29/74 16/32/82
f 12/22/60 11/23/54 7/13/32
f 16/4/83 8/14/39 10/12/52
s 4
f 1/40/6 14/35/72 2/41/14
f 4/38/19 2/41/10 9/36/46
f 5/15/21 11/23/53 10/21/49
f 6/17/30 11/23/58 5/15/25
f 8/37/40 1/40/2 3/39/16
f 9/36/47 2/41/11 15/34/77
f 13/33/65 1/40/3 8/37/41
f 14/35/70 1/40/4 13/33/66
f 15/34/78 2/41/12 14/35/71
